<svg width="20" height="20" viewBox="0 0 20 20" fill="none" xmlns="http://www.w3.org/2000/svg">
<path d="M13.0974 2.05874C13.1215 1.98028 13.13 1.89783 13.1222 1.8161C13.1145 1.73438 13.0907 1.65497 13.0523 1.58243C13.0139 1.50988 12.9616 1.44561 12.8983 1.39329C12.8351 1.34097 12.7621 1.30162 12.6836 1.27749C12.6052 1.25336 12.5227 1.24492 12.441 1.25266C12.3593 1.26039 12.2799 1.28415 12.2073 1.32257C12.1348 1.36099 12.0705 1.41332 12.0182 1.47658C11.9659 1.53984 11.9265 1.61278 11.9024 1.69124L6.9024 17.9412C6.85366 18.0997 6.86988 18.271 6.94747 18.4176C7.02506 18.5641 7.15768 18.6738 7.31615 18.7225C7.47461 18.7712 7.64595 18.755 7.79246 18.6774C7.93897 18.5998 8.04866 18.4672 8.0974 18.3087L13.0974 2.05874ZM6.0674 5.18249C6.1256 5.24055 6.17178 5.30952 6.20329 5.38545C6.2348 5.46138 6.25101 5.54279 6.25101 5.62499C6.25101 5.7072 6.2348 5.7886 6.20329 5.86454C6.17178 5.94047 6.1256 6.00944 6.0674 6.06749L2.13365 9.99999L6.0674 13.9325C6.18476 14.0499 6.25069 14.209 6.25069 14.375C6.25069 14.541 6.18476 14.7001 6.0674 14.8175C5.95004 14.9349 5.79087 15.0008 5.6249 15.0008C5.45893 15.0008 5.29976 14.9349 5.1824 14.8175L0.807397 10.4425C0.749193 10.3844 0.703014 10.3155 0.671506 10.2395C0.639998 10.1636 0.623779 10.0822 0.623779 9.99999C0.623779 9.91778 0.639998 9.83638 0.671506 9.76045C0.703014 9.68452 0.749193 9.61555 0.807397 9.55749L5.1824 5.18249C5.24045 5.12429 5.30942 5.07811 5.38535 5.0466C5.46129 5.0151 5.54269 4.99888 5.6249 4.99888C5.70711 4.99888 5.78851 5.0151 5.86444 5.0466C5.94037 5.07811 6.00934 5.12429 6.0674 5.18249ZM13.9324 5.18249C13.8742 5.24055 13.828 5.30952 13.7965 5.38545C13.765 5.46138 13.7488 5.54279 13.7488 5.62499C13.7488 5.7072 13.765 5.7886 13.7965 5.86454C13.828 5.94047 13.8742 6.00944 13.9324 6.06749L17.8661 9.99999L13.9324 13.9325C13.8743 13.9906 13.8282 14.0596 13.7967 14.1355C13.7653 14.2114 13.7491 14.2928 13.7491 14.375C13.7491 14.4572 13.7653 14.5386 13.7967 14.6145C13.8282 14.6904 13.8743 14.7594 13.9324 14.8175C13.9905 14.8756 14.0595 14.9217 14.1354 14.9531C14.2113 14.9846 14.2927 15.0008 14.3749 15.0008C14.4571 15.0008 14.5385 14.9846 14.6144 14.9531C14.6903 14.9217 14.7593 14.8756 14.8174 14.8175L19.1924 10.4425C19.2506 10.3844 19.2968 10.3155 19.3283 10.2395C19.3598 10.1636 19.376 10.0822 19.376 9.99999C19.376 9.91778 19.3598 9.83638 19.3283 9.76045C19.2968 9.68452 19.2506 9.61555 19.1924 9.55749L14.8174 5.18249C14.7593 5.12429 14.6904 5.07811 14.6144 5.0466C14.5385 5.0151 14.4571 4.99888 14.3749 4.99888C14.2927 4.99888 14.2113 5.0151 14.1354 5.0466C14.0594 5.07811 13.9905 5.12429 13.9324 5.18249Z" fill="white"/>
</svg>
