<svg width="32" height="32" viewBox="0 0 32 32" fill="none" xmlns="http://www.w3.org/2000/svg">
<path d="M15.5737 20.5203C14.962 21.4818 14.3751 22.4225 13.0599 23.3363C12.3564 23.8294 10.7371 24.7929 8.4355 24.7929C4.04431 24.7929 0.5 21.6004 0.5 15.9876C0.5 11.0823 3.83406 7.20728 8.52913 7.20728C10.4313 7.20728 12.1213 7.86484 13.3658 8.85128C14.5167 9.7669 15.0557 10.6828 15.526 11.5048L12.2397 13.1468C12.0046 12.6077 11.7216 12.0438 10.9952 11.434C10.1962 10.7993 9.39894 10.612 8.71644 10.612C6.04012 10.612 4.63119 13.101 4.63119 15.871C4.63119 19.5109 6.48744 21.3175 8.71644 21.3175C10.8766 21.3175 11.7464 19.8148 12.3086 18.8533L15.5737 20.5204V20.5203ZM27.0859 7.72346H31.5L25.7477 24.2997H21.5229L15.8414 7.72346H20.2554L23.6831 19.511L27.0859 7.72346Z" fill="black"/>
</svg>
